<?xml version="1.0" standalone="no"?>
<!DOCTYPE svg PUBLIC "-//W3C//DTD SVG 20010904//EN"
 "http://www.w3.org/TR/2001/REC-SVG-20010904/DTD/svg10.dtd">
<svg version="1.0" xmlns="http://www.w3.org/2000/svg"
 width="512.000000pt" height="512.000000pt" viewBox="0 0 512.000000 512.000000"
 preserveAspectRatio="xMidYMid meet">

<g transform="translate(0.000000,512.000000) scale(0.100000,-0.100000)"
fill="#ffffff" stroke="none">
<path d="M142 4850 c-46 -19 -92 -63 -117 -113 l-25 -51 0 -1326 0 -1326 26
-53 c28 -56 91 -106 147 -118 l27 -6 -2 -281 -3 -281 -47 -7 c-97 -13 -155
-93 -145 -196 12 -129 85 -241 195 -300 76 -41 177 -55 353 -51 123 4 132 5
150 28 19 23 24 56 13 85 -13 34 -47 41 -235 46 -181 5 -186 6 -227 32 -52 35
-95 107 -96 162 l-1 41 1308 3 1307 2 0 -120 0 -120 -901 -2 -901 -3 -24 -28
c-30 -35 -30 -59 0 -94 l24 -28 900 -3 900 -2 4 -143 c3 -122 6 -148 25 -183
34 -65 69 -100 125 -128 l52 -26 695 0 c652 0 699 2 736 19 56 25 101 66 133
120 26 43 27 54 30 193 l4 148 76 0 c211 1 331 52 410 178 61 96 77 205 41
279 -27 55 -69 85 -130 91 l-49 5 0 1359 c0 1197 -2 1363 -15 1395 -25 59 -61
99 -109 122 -42 19 -62 21 -254 21 -229 0 -232 -1 -247 -62 -6 -22 -1 -33 23
-58 l30 -30 191 0 190 0 20 -26 21 -27 0 -1343 0 -1344 -100 0 -100 0 0 783
c0 739 -1 784 -19 823 -27 60 -80 114 -136 140 -49 23 -57 24 -357 24 l-308 0
0 484 0 485 149 3 c130 3 152 5 170 22 27 25 28 79 1 106 -18 18 -33 20 -169
20 l-149 0 -4 253 c-3 223 -5 256 -22 287 -26 49 -64 88 -108 111 -36 18 -83
19 -1745 18 -1017 0 -1717 -4 -1731 -9z m3022 -149 c3 -4 8 -34 12 -65 l7 -56
-1036 0 c-715 0 -1043 -3 -1060 -11 -51 -23 -59 -86 -15 -125 19 -18 65 -19
1129 -22 l1109 -2 -2 -673 -3 -672 -176 -5 c-174 -5 -176 -5 -225 -35 -53 -33
-107 -104 -124 -163 -5 -21 -10 -153 -10 -304 l0 -268 -1165 0 -1165 0 0 1059
0 1059 180 4 c164 3 181 5 199 23 10 11 22 33 25 48 5 23 1 34 -23 57 l-29 30
-227 0 -226 0 -24 -25 -25 -24 0 -1169 c0 -1137 1 -1170 19 -1193 l19 -24
1221 -3 1221 -2 0 -65 0 -65 -1284 0 c-1249 0 -1284 1 -1307 19 l-24 19 0
1312 0 1312 24 19 c23 19 61 19 1502 19 820 0 1480 -4 1483 -9z m1196 -1796
c64 -33 60 41 60 -1240 0 -1281 4 -1207 -60 -1240 -25 -13 -119 -15 -690 -15
-606 0 -664 1 -691 17 -59 35 -59 39 -59 521 0 489 2 475 -67 488 -47 9 -83
-29 -83 -91 l0 -45 -1210 0 -1210 0 0 275 0 275 1210 0 1210 0 0 -82 c0 -70 3
-85 22 -105 30 -33 80 -31 107 3 21 26 21 35 21 591 0 617 -1 609 58 645 25
16 83 17 690 18 573 0 667 -2 692 -15z m603 -1813 c-3 -57 -43 -125 -95 -160
-39 -25 -50 -27 -170 -30 l-128 -4 0 121 0 121 198 -2 197 -3 -2 -43z"/>
<path d="M1788 4120 c-241 -29 -470 -187 -578 -399 -59 -118 -75 -192 -74
-346 0 -124 3 -149 27 -220 84 -250 293 -443 542 -500 149 -35 334 -17 473 46
200 90 363 285 419 499 23 89 23 273 0 360 -96 363 -443 602 -809 560z m279
-180 c407 -143 529 -665 228 -972 -109 -111 -235 -168 -395 -176 -396 -20
-698 350 -600 733 52 205 216 370 425 430 76 22 262 14 342 -15z"/>
<path d="M2117 3638 c-12 -13 -82 -101 -156 -196 -74 -95 -137 -171 -141 -170
-4 2 -41 42 -84 90 -97 109 -124 121 -171 73 -48 -47 -38 -70 101 -225 112
-126 128 -140 158 -140 18 0 39 6 48 13 38 31 369 468 374 496 13 65 -81 108
-129 59z"/>
<path d="M3481 2784 c-24 -30 -26 -43 -10 -78 19 -41 53 -48 219 -44 146 3
153 4 171 27 26 32 24 73 -4 99 -22 21 -33 22 -189 22 l-167 0 -20 -26z"/>
<path d="M3532 2246 c-195 -48 -366 -207 -428 -401 -54 -164 -28 -359 66 -502
113 -172 299 -272 505 -273 281 0 521 197 580 477 18 86 18 150 0 236 -48 227
-217 403 -441 461 -73 19 -207 20 -282 2z m230 -147 c180 -38 322 -188 347
-369 33 -242 -127 -461 -369 -502 -116 -20 -248 14 -347 89 -56 43 -120 137
-143 210 -101 328 179 642 512 572z"/>
<path d="M3842 1873 c-11 -10 -61 -71 -112 -135 -50 -65 -93 -118 -95 -118 -2
0 -29 27 -61 60 -65 69 -98 77 -139 35 -47 -46 -38 -67 93 -212 64 -72 79 -83
107 -83 18 0 42 8 53 18 11 9 77 90 146 180 104 135 126 169 126 197 0 60 -74
96 -118 58z"/>
</g>
</svg>
