<?xml version="1.0" standalone="no"?>
<!DOCTYPE svg PUBLIC "-//W3C//DTD SVG 20010904//EN"
 "http://www.w3.org/TR/2001/REC-SVG-20010904/DTD/svg10.dtd">
<svg version="1.0" xmlns="http://www.w3.org/2000/svg"
 width="419.000000pt" height="419.000000pt" viewBox="0 0 419.000000 419.000000"
 preserveAspectRatio="xMidYMid meet">

<g transform="translate(0.000000,419.000000) scale(0.100000,-0.100000)"
fill="#000000" stroke="none">
<path d="M505 4176 c-134 -31 -217 -77 -316 -175 -84 -84 -126 -151 -161 -256
l-23 -70 0 -1580 0 -1580 28 -80 c72 -205 238 -359 443 -410 51 -13 156 -15
709 -13 l648 3 -169 136 c-339 274 -784 672 -884 791 -238 285 -278 502 -141
770 163 321 523 792 901 1182 225 232 359 301 630 327 136 14 192 5 296 -45
87 -42 84 -39 577 -449 579 -482 937 -787 1045 -891 l92 -89 0 945 c0 908 -1
948 -20 1022 -33 130 -103 240 -207 327 -56 47 -186 112 -258 129 -78 19
-3107 24 -3190 6z m2535 -369 c23 -134 73 -192 183 -212 20 -4 40 -11 43 -17
10 -16 -15 -35 -54 -42 -93 -15 -146 -78 -171 -203 -14 -75 -20 -88 -37 -88
-16 0 -21 11 -31 75 -21 130 -73 197 -171 219 -24 5 -46 12 -49 15 -14 14 9
35 46 41 49 8 111 51 139 97 11 18 25 67 32 108 21 126 50 129 70 7z m394
-428 c34 -40 33 -74 -3 -110 -57 -56 -141 -23 -141 56 0 80 93 115 144 54z"/>
<path d="M2830 2343 c-107 -37 -196 -120 -247 -229 -23 -48 -28 -73 -28 -134
1 -92 26 -147 87 -187 38 -25 50 -28 132 -28 80 0 98 3 151 29 212 104 302
369 171 501 -64 64 -168 83 -266 48z"/>
<path d="M1131 1899 c-114 -57 -212 -187 -227 -300 -9 -68 17 -149 61 -188 43
-37 70 -45 139 -39 106 9 225 96 287 210 32 59 34 69 34 154 0 84 -2 93 -29
128 -56 75 -159 88 -265 35z"/>
<path d="M3610 1611 c-103 -33 -200 -122 -251 -228 -28 -58 -33 -79 -34 -143
0 -124 50 -180 162 -180 118 0 245 95 312 233 81 165 31 312 -111 322 -29 3
-64 1 -78 -4z"/>
<path d="M3932 1195 c-113 -53 -220 -201 -229 -319 -10 -118 43 -180 147 -174
74 5 138 38 204 105 135 134 167 330 64 393 -46 28 -119 26 -186 -5z"/>
<path d="M4053 603 c-109 -132 -207 -243 -452 -512 l-73 -81 62 0 c163 0 354
98 457 235 95 125 136 254 131 413 l-3 92 -122 -147z"/>
<path d="M2644 511 c-103 -26 -220 -121 -274 -223 -26 -49 -34 -77 -38 -132
-3 -62 -1 -75 20 -106 l24 -35 128 -3 c121 -2 130 -1 171 22 23 14 63 48 88
76 156 173 133 386 -44 404 -24 3 -58 1 -75 -3z"/>
<path d="M3050 171 c-51 -16 -114 -54 -161 -98 -27 -25 -49 -50 -49 -54 0 -5
95 -9 210 -9 l210 0 0 38 c0 97 -101 156 -210 123z"/>
</g>
</svg>
